<?xml version="1.0" encoding="UTF-8"?>
<!DOCTYPE svg PUBLIC "-//W3C//DTD SVG 1.1//EN" "http://www.w3.org/Graphics/SVG/1.1/DTD/svg11.dtd">
<!-- Creator: CorelDRAW -->
<svg xmlns="http://www.w3.org/2000/svg" xml:space="preserve" width="6.82666in" height="6.82666in" style="shape-rendering:geometricPrecision; text-rendering:geometricPrecision; image-rendering:optimizeQuality; fill-rule:evenodd; clip-rule:evenodd"
viewBox="0 0 6.82666 6.82666"
 xmlns:xlink="http://www.w3.org/1999/xlink">
 <defs>
  <style type="text/css">
   <![CDATA[
    .fil1 {fill:none}
    .fil0 {fill:#212121;fill-rule:nonzero}
   ]]>
  </style>
 </defs>
 <g id="Layer_x0020_1">
  <metadata id="CorelCorpID_0Corel-Layer"/>
  <g id="_554273608">
   <path id="_554274136" class="fil0" d="M5.30059 4.63467c0.184815,0 0.352154,0.0749291 0.47328,0.196051 0.121126,0.121126 0.196051,0.288465 0.196051,0.47328 0,0.184815 -0.0749252,0.352154 -0.196051,0.47328 -0.121126,0.121126 -0.288465,0.196051 -0.47328,0.196051 -0.184815,0 -0.352154,-0.0749252 -0.47328,-0.196051 -0.121122,-0.121126 -0.196051,-0.288465 -0.196051,-0.47328 0,-0.184815 0.0749291,-0.352154 0.196051,-0.47328 0.121126,-0.121122 0.288465,-0.196051 0.47328,-0.196051zm0.322445 0.346886c-0.0825118,-0.0825079 -0.196516,-0.133547 -0.322445,-0.133547 -0.125929,0 -0.239933,0.0510394 -0.322445,0.133547 -0.0825079,0.0825118 -0.133547,0.196516 -0.133547,0.322445 0,0.125929 0.0510394,0.239933 0.133547,0.322445 0.0825079,0.0825079 0.196516,0.133547 0.322445,0.133547 0.125929,0 0.239937,-0.0510394 0.322445,-0.133547 0.0825079,-0.0825079 0.133547,-0.196516 0.133547,-0.322445 0,-0.125929 -0.0510394,-0.239937 -0.133547,-0.322445z"/>
   <polygon id="_554273704" class="fil0" points="5.40726,4.9664 5.40726,5.6416 5.19392,5.6416 5.19392,4.9664 "/>
   <polygon id="_554273176" class="fil0" points="4.96299,5.19733 5.63819,5.19733 5.63819,5.41067 4.96299,5.41067 "/>
   <path id="_554273728" class="fil0" d="M4.56811 4.47999c-0.046626,-0.137594 -0.176606,-0.27448 -0.337606,-0.397327 -0.336906,-0.257067 -0.795083,-0.441335 -0.966,-0.46852 -0.181795,-0.0289055 -0.184311,-0.372555 -0.184319,-0.373539l-0.000480315 -0.0449331 0.031315 -0.0313189c0.000712598,-0.000712598 0.248224,-0.245744 0.301846,-0.573272l0.0146654 -0.0895866 0.0903346 0c0.00248819,0 0.00840945,-0.00566535 0.0162126,-0.0148543 0.0161102,-0.0189685 0.0298307,-0.0461299 0.0399094,-0.0775 0.0108071,-0.0336339 0.016874,-0.071437 0.016874,-0.10915 0,-0.054874 -0.012811,-0.105315 -0.043252,-0.131165l-0.0399291 -0.0339055 0.00242913 -0.0519291c0.000795276,-0.0170591 0.00283465,-0.0359882 0.00541732,-0.0600354 0.00568898,-0.0529173 0.0143268,-0.13322 0.0143268,-0.22776 0,-0.29324 -0.0937441,-0.720587 -0.712882,-0.720587 -0.619138,0 -0.712874,0.427346 -0.712874,0.720591 0,0.0945276 0.00863386,0.174819 0.0143228,0.22774 0.00258268,0.0240551 0.00462205,0.0429882 0.00541732,0.0600512l0.00242913 0.0519291 -0.0399291 0.0339055c-0.030437,0.0258504 -0.043252,0.0762953 -0.043252,0.131165 0,0.0377126 0.00606693,0.0755197 0.016874,0.10915 0.0100787,0.0313661 0.0237992,0.0585276 0.0399094,0.0774961 0.00780709,0.00919291 0.0137323,0.0148583 0.0162165,0.0148583l0.0903346 0 0.0146654 0.0895866c0.053626,0.327531 0.30113,0.572559 0.301843,0.573272l0.0313189 0.0313189 -0.000484252 0.0449331c-7.87402e-006,0.000984252 -0.00251969,0.344634 -0.184319,0.373539 -0.170913,0.027185 -0.629091,0.211453 -0.966004,0.468528 -0.160996,0.122843 -0.29098,0.259728 -0.337606,0.397319l3.50228 0zm-0.208441 -0.566492c0.250535,0.191161 0.440335,0.422685 0.440335,0.673161l0 0.106669 -0.106669 0 -3.75272 0 -0.106669 0 0 -0.106669c0,-0.250472 0.189803,-0.481996 0.440331,-0.673154 0.364291,-0.277965 0.870378,-0.478906 1.06184,-0.509362 0.00227165,-0.000362205 0.00380315,-0.0738583 0.00457087,-0.122689 -0.0721969,-0.0812717 -0.248976,-0.302559 -0.31589,-0.58761 -0.0325472,-0.0156929 -0.0618583,-0.0395945 -0.0874291,-0.0697047 -0.0340433,-0.0400866 -0.0614331,-0.0925079 -0.0799094,-0.15 -0.017748,-0.0552283 -0.0277087,-0.115606 -0.0277087,-0.17415 0,-0.0911693 0.0234213,-0.1815 0.0774567,-0.250335l-0.000452756 -0.0042126c-0.00635433,-0.0590866 -0.0159921,-0.148736 -0.0159921,-0.250244 0,-0.380059 0.121787,-0.933929 0.926213,-0.933929 0.804425,0 0.92622,0.553866 0.92622,0.933925 0,0.10152 -0.00964173,0.191181 -0.0159961,0.250264l-0.000452756 0.00419685c0.0540315,0.0688346 0.0774567,0.159157 0.0774567,0.250335 0,0.0585433 -0.00996063,0.118917 -0.0277087,0.17415 -0.0184764,0.0574961 -0.0458661,0.109917 -0.0799094,0.150004 -0.0255669,0.0301063 -0.054874,0.0540079 -0.0874213,0.0697008 -0.0669094,0.285047 -0.243689,0.506346 -0.315898,0.587614 0.000767717,0.0488307 0.00230315,0.122323 0.00457087,0.122685 0.191469,0.0304567 0.697543,0.23139 1.06183,0.509354z"/>
  </g>
 </g>
 <rect class="fil1" width="6.82666" height="6.82666"/>
</svg>
